<svg width="18" height="18" viewBox="0 0 18 18" fill="none" xmlns="http://www.w3.org/2000/svg">
<path d="M15.3578 11.2478C14.4074 13.9445 11.8593 15.7482 9.00002 15.7482C6.14079 15.7482 3.59262 13.9445 2.64227 11.2478" stroke="black" stroke-width="1.3" stroke-linecap="round" stroke-linejoin="round"/>
<path d="M15.75 9C15.75 5.27208 12.7279 2.25 9 2.25C5.27208 2.25 2.25 5.27208 2.25 9" stroke="black" stroke-width="1.3" stroke-linecap="round" stroke-linejoin="round"/>
<path d="M2.25 9H3.375" stroke="black" stroke-width="1.3" stroke-linecap="round" stroke-linejoin="round"/>
<path d="M14.625 9H15.75" stroke="black" stroke-width="1.3" stroke-linecap="round" stroke-linejoin="round"/>
<path fill-rule="evenodd" clip-rule="evenodd" d="M10.7349 6.77902L8.3863 7.74612C7.94401 7.92824 7.62201 8.31936 7.5282 8.78839C7.4344 9.25743 7.5812 9.74231 7.91943 10.0805V10.0805C8.25765 10.4188 8.74253 10.5656 9.21156 10.4718C9.68059 10.378 10.0717 10.0559 10.2538 9.61366L11.2209 7.26501C11.2782 7.12604 11.2462 6.9663 11.1399 6.86003C11.0337 6.75376 10.8739 6.72181 10.7349 6.77902Z" stroke="black" stroke-width="1.3" stroke-linecap="round" stroke-linejoin="round"/>
<path d="M4.22699 4.22705L5.02251 5.02258" stroke="black" stroke-width="1.3" stroke-linecap="round" stroke-linejoin="round"/>
<path d="M9 2.25V3.375" stroke="black" stroke-width="1.3" stroke-linecap="round" stroke-linejoin="round"/>
<path d="M13.773 4.22705L12.9775 5.02258" stroke="black" stroke-width="1.3" stroke-linecap="round" stroke-linejoin="round"/>
</svg>
