<svg width="21" height="21" viewBox="0 0 21 21" fill="none" xmlns="http://www.w3.org/2000/svg">
<path fill-rule="evenodd" clip-rule="evenodd" d="M9.10391 2.85309C9.72703 1.78335 11.2725 1.78334 11.8956 2.85309L19.6364 16.1421C20.2637 17.219 19.4869 18.5706 18.2406 18.5706H2.75893C1.51264 18.5706 0.735787 17.219 1.36309 16.1421L9.10391 2.85309ZM9.82304 7.17128C9.82304 6.79746 10.1261 6.49442 10.4999 6.49442C10.8737 6.49442 11.1768 6.79746 11.1768 7.17128V12.5264C11.1768 12.9002 10.8737 13.2032 10.4999 13.2032C10.1261 13.2032 9.82304 12.9002 9.82304 12.5264V7.17128ZM11.1768 15.2162C11.1768 14.8455 10.8706 14.545 10.4999 14.545C10.1292 14.545 9.82304 14.8455 9.82304 15.2162C9.82304 15.587 10.1292 15.8875 10.4999 15.8875C10.8706 15.8875 11.1768 15.587 11.1768 15.2162Z" fill="#FFB023"/>
</svg>
