<svg width="29" height="16" viewBox="0 0 29 16" fill="none" xmlns="http://www.w3.org/2000/svg">
<path d="M5.65128 12H4.24503L6.8054 4.72727H8.43182L10.9957 12H9.58949L7.64702 6.21875H7.5902L5.65128 12ZM5.69744 9.14844H9.53267V10.2067H5.69744V9.14844ZM12.0966 4.72727L13.9893 10.4517H14.0639L15.9531 4.72727H17.402L14.8381 12H13.2116L10.6513 4.72727H12.0966ZM22.8414 7.04972C22.7823 6.85795 22.7006 6.68632 22.5964 6.5348C22.4946 6.38092 22.3715 6.24953 22.2271 6.14062C22.085 6.03172 21.9217 5.95005 21.737 5.8956C21.5524 5.83878 21.3511 5.81037 21.1333 5.81037C20.7427 5.81037 20.3947 5.90862 20.0893 6.10511C19.7839 6.30161 19.5436 6.59044 19.3684 6.97159C19.1956 7.35038 19.1092 7.81203 19.1092 8.35653C19.1092 8.90578 19.1956 9.37098 19.3684 9.75213C19.5413 10.1333 19.7815 10.4233 20.0893 10.6222C20.3971 10.8187 20.7546 10.9169 21.1618 10.9169C21.5311 10.9169 21.8507 10.8459 22.1206 10.7038C22.3928 10.5618 22.6023 10.3606 22.7491 10.1001C22.8959 9.83736 22.9693 9.52959 22.9693 9.17685L23.2676 9.22301H21.2931V8.19318H24.2441V9.06676C24.2441 9.68939 24.1116 10.228 23.8464 10.6825C23.5813 11.1371 23.2167 11.4875 22.7527 11.7337C22.2886 11.9775 21.756 12.0994 21.1547 12.0994C20.4847 12.0994 19.8964 11.9491 19.3897 11.6484C18.8855 11.3454 18.4913 10.9157 18.2072 10.3594C17.9255 9.80066 17.7846 9.13778 17.7846 8.37074C17.7846 7.78362 17.8675 7.25923 18.0332 6.79759C18.2013 6.33594 18.4357 5.94413 18.7363 5.62216C19.037 5.29782 19.3897 5.05161 19.7946 4.88352C20.1994 4.71307 20.6397 4.62784 21.1156 4.62784C21.5181 4.62784 21.8933 4.68703 22.2413 4.8054C22.5893 4.9214 22.8983 5.08712 23.1681 5.30256C23.4404 5.51799 23.6641 5.77367 23.8393 6.0696C24.0145 6.36553 24.1293 6.69223 24.1838 7.04972H22.8414Z" fill="#28628F"/>
<rect x="0.5" y="0.5" width="28" height="15" rx="3.5" stroke="#28628F"/>
</svg>
