<svg width="37" height="22" viewBox="0 0 37 22" fill="none" xmlns="http://www.w3.org/2000/svg">
<path d="M7.98153 15.5H6.29403L9.36648 6.77273H11.3182L14.3949 15.5H12.7074L10.3764 8.5625H10.3082L7.98153 15.5ZM8.03693 12.0781H12.6392V13.348H8.03693V12.0781ZM15.7159 6.77273L17.9872 13.642H18.0767L20.3438 6.77273H22.0824L19.0057 15.5H17.054L13.9815 6.77273H15.7159ZM28.6097 9.55966C28.5387 9.32955 28.4407 9.12358 28.3157 8.94176C28.1935 8.7571 28.0458 8.59943 27.8725 8.46875C27.7021 8.33807 27.506 8.24006 27.2844 8.17472C27.0629 8.10653 26.8214 8.07244 26.56 8.07244C26.0913 8.07244 25.6737 8.19034 25.3072 8.42614C24.9407 8.66193 24.6523 9.00852 24.4421 9.46591C24.2347 9.92045 24.131 10.4744 24.131 11.1278C24.131 11.7869 24.2347 12.3452 24.4421 12.8026C24.6495 13.2599 24.9379 13.608 25.3072 13.8466C25.6765 14.0824 26.1055 14.2003 26.5941 14.2003C27.0373 14.2003 27.4208 14.1151 27.7447 13.9446C28.0714 13.7741 28.3228 13.5327 28.4989 13.2202C28.6751 12.9048 28.7631 12.5355 28.7631 12.1122L29.1211 12.1676H26.7518V10.9318H30.293V11.9801C30.293 12.7273 30.1339 13.3736 29.8157 13.919C29.4975 14.4645 29.06 14.8849 28.5032 15.1804C27.9464 15.473 27.3072 15.6193 26.5856 15.6193C25.7816 15.6193 25.0756 15.4389 24.4677 15.0781C23.8626 14.7145 23.3896 14.1989 23.0487 13.5312C22.7106 12.8608 22.5415 12.0653 22.5415 11.1449C22.5415 10.4403 22.641 9.81108 22.8398 9.2571C23.0415 8.70312 23.3228 8.23295 23.6836 7.84659C24.0444 7.45739 24.4677 7.16193 24.9535 6.96023C25.4393 6.75568 25.9677 6.65341 26.5387 6.65341C27.0217 6.65341 27.4719 6.72443 27.8896 6.86648C28.3072 7.00568 28.6779 7.20455 29.0018 7.46307C29.3285 7.72159 29.5969 8.02841 29.8072 8.38352C30.0174 8.73864 30.1552 9.13068 30.2205 9.55966H28.6097Z" fill="#5C7A98"/>
<rect x="0.5" y="1" width="36" height="20" rx="3.5" stroke="#5C7A98"/>
</svg>
