<svg width="24" height="24" viewBox="0 0 24 24" fill="none" xmlns="http://www.w3.org/2000/svg">
<path fill-rule="evenodd" clip-rule="evenodd" d="M5.31299 12.882C5.27699 12.594 5.24999 12.297 5.24999 12C5.24999 11.703 5.27699 11.406 5.31299 11.118L3.72499 9.876C3.37299 9.601 3.27699 9.107 3.50099 8.72L4.91299 6.277C5.13599 5.89 5.60999 5.727 6.02499 5.893L7.44599 6.464C7.72699 6.577 8.03999 6.532 8.29299 6.366C8.51299 6.221 8.74099 6.086 8.97699 5.966C9.24599 5.829 9.44299 5.583 9.48599 5.284L9.70399 3.77C9.76699 3.328 10.146 3 10.592 3H13.409C13.855 3 14.234 3.328 14.297 3.77L14.513 5.282C14.556 5.582 14.754 5.829 15.025 5.965C15.26 6.083 15.487 6.216 15.706 6.361C15.96 6.529 16.274 6.576 16.556 6.463L17.975 5.893C18.39 5.727 18.864 5.89 19.087 6.277L20.499 8.72C20.723 9.107 20.627 9.6 20.275 9.876L18.687 11.118C18.723 11.406 18.75 11.703 18.75 12C18.75 12.297 18.723 12.594 18.687 12.882L20.275 14.124C20.627 14.399 20.723 14.893 20.499 15.28L19.087 17.723C18.863 18.11 18.389 18.273 17.975 18.107L16.556 17.537C16.274 17.423 15.96 17.471 15.706 17.639C15.487 17.784 15.26 17.917 15.025 18.035C14.754 18.171 14.556 18.418 14.513 18.718L14.296 20.23C14.233 20.672 13.854 21 13.408 21H10.591C10.145 21 9.76599 20.672 9.70299 20.23L9.48599 18.717C9.44299 18.417 9.24699 18.172 8.97699 18.035C8.74099 17.915 8.51299 17.781 8.29299 17.635C8.04099 17.468 7.72799 17.423 7.44699 17.536L6.02499 18.107C5.60999 18.273 5.13599 18.11 4.91299 17.723L3.50099 15.28C3.27699 14.893 3.37299 14.4 3.72499 14.124L5.31299 12.882ZM13.9092 13.9092C14.9637 12.8548 14.9637 11.1453 13.9092 10.0909C12.8548 9.03644 11.1453 9.03644 10.0909 10.0909C9.03644 11.1453 9.03644 12.8548 10.0909 13.9092C11.1453 14.9637 12.8548 14.9637 13.9092 13.9092Z" fill="black"/>
</svg>
