<svg width="24" height="24" viewBox="0 0 24 24" fill="none" xmlns="http://www.w3.org/2000/svg">
<g id="Star NIR">
<path id="Star 2" d="M13.4266 2.77254C12.9776 1.39057 11.0224 1.39058 10.5734 2.77254L9.05482 7.4463C8.98788 7.65232 8.7959 7.7918 8.57929 7.7918H3.66501C2.21192 7.7918 1.60776 9.65122 2.78333 10.5053L6.75907 13.3939C6.93431 13.5212 7.00764 13.7469 6.9407 13.9529L5.42211 18.6266C4.97308 20.0086 6.5548 21.1578 7.73037 20.3037L11.7061 17.4152C11.8814 17.2878 12.1186 17.2878 12.2939 17.4152L16.2696 20.3037C17.4452 21.1578 19.0269 20.0086 18.5779 18.6266L17.0593 13.9529C16.9924 13.7469 17.0657 13.5212 17.2409 13.3939L21.2167 10.5053C22.3922 9.65122 21.7881 7.7918 20.335 7.7918H15.4207C15.2041 7.7918 15.0121 7.65232 14.9452 7.4463L13.4266 2.77254Z" fill="black" stroke="#B3B3B3"/>
</g>
</svg>
