<?xml version="1.0" encoding="utf-8"?>
<!-- Generator: Adobe Illustrator 15.0.0, SVG Export Plug-In . SVG Version: 6.00 Build 0)  -->
<!DOCTYPE svg PUBLIC "-//W3C//DTD SVG 1.1//EN" "http://www.w3.org/Graphics/SVG/1.1/DTD/svg11.dtd">
<svg version="1.1" id="Layer_1" xmlns="http://www.w3.org/2000/svg" xmlns:xlink="http://www.w3.org/1999/xlink" x="0px" y="0px"
	 width="1816px" height="376px" viewBox="0 0 1816 376" enable-background="new 0 0 1816 376" xml:space="preserve">
<g>
	<path fill="#EA0314" d="M109.343,216.828v71.979H60.444V78.786h85.249c25.387,0,45.268,6.252,59.646,18.752
		c14.375,12.502,21.564,29.282,21.564,50.341c0,21.06-7.19,37.817-21.564,50.27c-14.377,12.455-34.258,18.68-59.646,18.68H109.343z
		 M109.343,179.325h36.35c10.769,0,18.871-2.86,24.305-8.583c5.432-5.72,8.15-13.246,8.15-22.575c0-9.52-2.693-17.212-8.078-23.079
		c-5.387-5.864-13.512-8.799-24.377-8.799h-36.35V179.325z"/>
	<path fill="#EA0314" d="M321.235,175.718l-17.742-0.144c-5.77,0-10.386,0.915-13.848,2.741c-3.462,1.828-6.058,4.521-7.789,8.078
		v102.414h-48.755V132.733h45.87l1.731,21.925l0.289,0.144c3.173-7.98,7.404-14.136,12.694-18.463
		c5.287-4.327,11.587-6.491,18.896-6.491c2.402,0,4.783,0.169,7.14,0.505c2.355,0.338,4.447,0.746,6.274,1.226L321.235,175.718z"/>
	<path fill="#EA0314" d="M324.057,209.328c0-23.945,6.514-43.177,19.545-57.698c13.029-14.519,31.662-21.781,55.895-21.781
		c24.328,0,43.007,7.262,56.039,21.781c13.029,14.521,19.545,33.753,19.545,57.698v3.029c0,24.042-6.516,43.273-19.545,57.698
		c-13.032,14.425-31.614,21.637-55.751,21.637c-24.427,0-43.154-7.212-56.183-21.637c-13.032-14.424-19.545-33.656-19.545-57.698
		V209.328z M372.812,212.357c0,13.271,1.995,23.562,5.986,30.868c3.989,7.309,10.985,10.963,20.987,10.963
		c9.712,0,16.588-3.654,20.627-10.963c4.039-7.307,6.058-17.598,6.058-30.868v-3.029c0-12.885-2.02-23.102-6.058-30.652
		c-4.039-7.548-11.012-11.323-20.916-11.323c-9.809,0-16.71,3.775-20.699,11.323c-3.992,7.55-5.986,17.767-5.986,30.652V212.357z"/>
	<path fill="#EA0314" d="M498.819,288.807v-122.32h-22.646v-33.753h22.646v-7.501c0-21.154,6.274-37.19,18.824-48.105
		c12.549-10.913,30.844-16.372,54.885-16.372c8.27,0,16.3,0.699,24.089,2.092c7.79,1.395,16.683,3.487,26.686,6.274l-6.635,38.37
		c-8.463-2.211-15.387-3.823-20.771-4.833c-5.387-1.01-12.213-1.515-20.482-1.515c-9.041,0-15.939,2.044-20.699,6.13
		c-4.76,4.089-7.14,10.075-7.14,17.958v7.501h30.58v33.753h-30.58v122.32H498.819z M645.66,288.807h-48.899V132.733h48.899V288.807z
		"/>
	<path fill="#EA0314" d="M707.971,288.807h-48.899V63.784h48.899V288.807z"/>
	<path fill="#EA0314" d="M790.475,291.691c-23.368,0-41.809-7.068-55.318-21.204c-13.512-14.136-20.267-32.311-20.267-54.524v-5.481
		c0-24.233,6.13-43.753,18.392-58.563c12.261-14.808,30.169-22.164,53.731-22.069c21.54,0,38.225,6.227,50.053,18.68
		c11.828,12.455,17.742,29.787,17.742,52v25.531h-90.442c1.634,8.56,5.168,15.387,10.602,20.483
		c5.432,5.098,12.813,7.645,22.142,7.645c9.423,0,16.852-0.697,22.286-2.092c5.432-1.393,12.38-3.87,20.843-7.429l8.222,32.6
		c-6.444,4.232-14.713,7.694-24.81,10.386C813.555,290.344,802.495,291.691,790.475,291.691z M787.013,167.352
		c-7.212,0-12.549,2.477-16.011,7.429c-3.462,4.954-5.722,11.9-6.779,20.844h42.985v-3.75c0-8.078-1.611-14.184-4.832-18.319
		C799.152,169.421,794.032,167.352,787.013,167.352z"/>
	<path fill="#EA0314" d="M914.375,288.807V78.786h73.709c26.541,0,46.735,4.713,60.583,14.136
		c13.848,9.425,20.771,23.944,20.771,43.562c0,10.194-2.261,19.112-6.78,26.757c-4.521,7.645-11.636,13.392-21.348,17.237v0.433
		c12.211,2.791,21.154,8.319,26.829,16.588c5.673,8.271,8.511,17.983,8.511,29.138c0,20.965-6.516,36.566-19.545,46.807
		c-13.032,10.242-32.577,15.362-58.636,15.362H914.375z M963.274,166.342h25.82c11.058-0.191,19.062-2.258,24.017-6.202
		c4.952-3.942,7.429-10,7.429-18.175c0-9.231-2.502-15.817-7.501-19.761c-5.001-3.942-13.32-5.914-24.954-5.914h-24.811V166.342z
		 M963.274,198.653v52.649h35.196c10.191,0,17.67-2.258,22.43-6.779c4.761-4.519,7.141-10.674,7.141-18.463
		c0-8.943-2.188-15.745-6.563-20.411c-4.377-4.663-11.517-6.996-21.42-6.996H963.274z"/>
	<path fill="#EA0314" d="M1182.374,270.343c-5.099,7.021-11.204,12.333-18.319,15.939c-7.117,3.606-15.34,5.409-24.666,5.409
		c-16.541,0-29.307-5.071-38.297-15.218c-8.993-10.145-13.487-26.325-13.487-48.539v-95.202h48.61v95.49
		c0,8.943,1.609,15.506,4.833,19.689c3.221,4.183,8.005,6.275,14.353,6.275c5.287,0,9.855-0.697,13.703-2.092
		c3.845-1.393,7.212-3.534,10.097-6.419V132.733h48.755v156.073h-42.552L1182.374,270.343z"/>
	<path fill="#EA0314" d="M1287.237,96.528h-48.899V63.784h48.899V96.528z M1287.237,288.807h-48.899V132.733h48.899V288.807z"/>
	<path fill="#EA0314" d="M1349.548,288.807h-48.899V63.784h48.899V288.807z"/>
	<path fill="#EA0314" d="M1354.305,211.059c0-24.81,5.216-44.547,15.65-59.213c10.434-14.663,25.507-21.997,45.221-21.997
		c7.308,0,13.799,1.611,19.474,4.832c5.673,3.223,10.769,7.814,15.29,13.775l0.433-0.144V63.784h48.755v225.022h-42.264
		l-3.606-19.329c-4.81,7.309-10.338,12.837-16.588,16.588c-6.252,3.75-13.512,5.625-21.781,5.625
		c-19.617,0-34.619-6.971-45.005-20.916c-10.385-13.942-15.578-32.838-15.578-56.688V211.059z M1403.06,214.088
		c0,12.982,1.803,22.912,5.409,29.787c3.606,6.876,9.881,10.313,18.824,10.313c5.096,0,9.567-0.913,13.415-2.741
		c3.845-1.826,7.067-4.566,9.664-8.222V180.19c-2.597-4.23-5.77-7.429-9.521-9.592c-3.75-2.164-8.175-3.246-13.271-3.246
		c-8.751,0-15.026,3.944-18.824,11.828c-3.8,7.886-5.697,18.513-5.697,31.878V214.088z"/>
	<path fill="#EA0314" d="M1579.468,291.691c-23.367,0-41.809-7.068-55.317-21.204c-13.512-14.136-20.267-32.311-20.267-54.524
		v-5.481c0-24.233,6.13-43.753,18.391-58.563c12.261-14.808,30.17-22.164,53.731-22.069c21.54,0,38.226,6.227,50.054,18.68
		c11.827,12.455,17.741,29.787,17.741,52v25.531h-90.441c1.634,8.56,5.168,15.387,10.603,20.483
		c5.432,5.098,12.812,7.645,22.142,7.645c9.423,0,16.852-0.697,22.285-2.092c5.432-1.393,12.381-3.87,20.844-7.429l8.222,32.6
		c-6.443,4.232-14.713,7.694-24.81,10.386C1602.547,290.344,1591.487,291.691,1579.468,291.691z M1576.006,167.352
		c-7.212,0-12.549,2.477-16.011,7.429c-3.462,4.954-5.723,11.9-6.78,20.844h42.985v-3.75c0-8.078-1.611-14.184-4.832-18.319
		C1588.146,169.421,1583.024,167.352,1576.006,167.352z"/>
	<path fill="#EA0314" d="M1749.608,175.718l-17.742-0.144c-5.77,0-10.386,0.915-13.848,2.741c-3.462,1.828-6.059,4.521-7.789,8.078
		v102.414h-48.755V132.733h45.87l1.73,21.925l0.289,0.144c3.173-7.98,7.403-14.136,12.693-18.463
		c5.287-4.327,11.587-6.491,18.896-6.491c2.403,0,4.783,0.169,7.141,0.505c2.355,0.338,4.446,0.746,6.274,1.226L1749.608,175.718z"
		/>
</g>
</svg>
