<?xml version="1.0" encoding="utf-8"?>
<!-- Generator: Adobe Illustrator 15.0.0, SVG Export Plug-In . SVG Version: 6.00 Build 0)  -->
<!DOCTYPE svg PUBLIC "-//W3C//DTD SVG 1.1//EN" "http://www.w3.org/Graphics/SVG/1.1/DTD/svg11.dtd">
<svg version="1.1" id="Layer_1" xmlns="http://www.w3.org/2000/svg" xmlns:xlink="http://www.w3.org/1999/xlink" x="0px" y="0px"
	 width="1816px" height="480px" viewBox="0 0 1816 480" enable-background="new 0 0 1816 480" xml:space="preserve">
<g>
	<path fill="#EA0314" d="M109.343,216.828v71.979H60.444V78.786h85.249c25.387,0,45.268,6.252,59.646,18.752
		c14.375,12.502,21.564,29.282,21.564,50.341c0,21.06-7.19,37.817-21.564,50.27c-14.377,12.455-34.258,18.68-59.646,18.68H109.343z
		 M109.343,179.325h36.35c10.769,0,18.871-2.86,24.305-8.583c5.432-5.72,8.15-13.246,8.15-22.575c0-9.52-2.693-17.212-8.078-23.079
		c-5.387-5.864-13.512-8.799-24.377-8.799h-36.35V179.325z"/>
	<path fill="#EA0314" d="M321.235,175.718l-17.742-0.144c-5.77,0-10.386,0.915-13.848,2.741c-3.462,1.828-6.058,4.521-7.789,8.078
		v102.414h-48.755V132.733h45.87l1.731,21.925l0.289,0.144c3.173-7.98,7.404-14.136,12.694-18.463
		c5.287-4.327,11.587-6.491,18.896-6.491c2.402,0,4.783,0.169,7.14,0.505c2.355,0.338,4.447,0.746,6.274,1.226L321.235,175.718z"/>
	<path fill="#EA0314" d="M324.057,209.328c0-23.945,6.514-43.177,19.545-57.698c13.029-14.519,31.662-21.781,55.895-21.781
		c24.328,0,43.007,7.262,56.039,21.781c13.029,14.521,19.545,33.753,19.545,57.698v3.029c0,24.042-6.516,43.273-19.545,57.698
		c-13.032,14.425-31.614,21.637-55.751,21.637c-24.427,0-43.154-7.212-56.183-21.637c-13.032-14.424-19.545-33.656-19.545-57.698
		V209.328z M372.812,212.357c0,13.271,1.995,23.562,5.986,30.868c3.989,7.309,10.985,10.963,20.987,10.963
		c9.712,0,16.588-3.654,20.627-10.963c4.039-7.307,6.058-17.598,6.058-30.868v-3.029c0-12.885-2.02-23.102-6.058-30.652
		c-4.039-7.548-11.012-11.323-20.916-11.323c-9.809,0-16.71,3.775-20.699,11.323c-3.992,7.55-5.986,17.767-5.986,30.652V212.357z"/>
	<path fill="#EA0314" d="M498.819,288.807v-122.32h-22.646v-33.753h22.646v-7.501c0-21.154,6.274-37.19,18.824-48.105
		c12.549-10.913,30.844-16.372,54.885-16.372c8.27,0,16.3,0.699,24.089,2.092c7.79,1.395,16.683,3.487,26.686,6.274l-6.635,38.37
		c-8.463-2.211-15.387-3.823-20.771-4.833c-5.387-1.01-12.213-1.515-20.482-1.515c-9.041,0-15.939,2.044-20.699,6.13
		c-4.76,4.089-7.14,10.075-7.14,17.958v7.501h30.58v33.753h-30.58v122.32H498.819z M645.66,288.807h-48.899V132.733h48.899V288.807z
		"/>
	<path fill="#EA0314" d="M707.971,288.807h-48.899V63.784h48.899V288.807z"/>
	<path fill="#EA0314" d="M790.475,291.691c-23.368,0-41.809-7.068-55.318-21.204c-13.512-14.136-20.267-32.311-20.267-54.524v-5.481
		c0-24.233,6.13-43.753,18.392-58.563c12.261-14.808,30.169-22.164,53.731-22.069c21.54,0,38.225,6.227,50.053,18.68
		c11.828,12.455,17.742,29.787,17.742,52v25.531h-90.442c1.634,8.56,5.168,15.387,10.602,20.483
		c5.432,5.098,12.813,7.645,22.142,7.645c9.423,0,16.852-0.697,22.286-2.092c5.432-1.393,12.38-3.87,20.843-7.429l8.222,32.6
		c-6.444,4.232-14.713,7.694-24.81,10.386C813.555,290.344,802.495,291.691,790.475,291.691z M787.013,167.352
		c-7.212,0-12.549,2.477-16.011,7.429c-3.462,4.954-5.722,11.9-6.779,20.844h42.985v-3.75c0-8.078-1.611-14.184-4.832-18.319
		C799.152,169.421,794.032,167.352,787.013,167.352z"/>
	<path fill="#EA0314" d="M914.375,288.807V78.786h73.709c26.541,0,46.735,4.713,60.583,14.136
		c13.848,9.425,20.771,23.944,20.771,43.562c0,10.194-2.261,19.112-6.78,26.757c-4.521,7.645-11.636,13.392-21.348,17.237v0.433
		c12.211,2.791,21.154,8.319,26.829,16.588c5.673,8.271,8.511,17.983,8.511,29.138c0,20.965-6.516,36.566-19.545,46.807
		c-13.032,10.242-32.577,15.362-58.636,15.362H914.375z M963.274,166.342h25.82c11.058-0.191,19.062-2.258,24.017-6.202
		c4.952-3.942,7.429-10,7.429-18.175c0-9.231-2.502-15.817-7.501-19.761c-5.001-3.942-13.32-5.914-24.954-5.914h-24.811V166.342z
		 M963.274,198.653v52.649h35.196c10.191,0,17.67-2.258,22.43-6.779c4.761-4.519,7.141-10.674,7.141-18.463
		c0-8.943-2.188-15.745-6.563-20.411c-4.377-4.663-11.517-6.996-21.42-6.996H963.274z"/>
	<path fill="#EA0314" d="M1182.374,270.343c-5.099,7.021-11.204,12.333-18.319,15.939c-7.117,3.606-15.34,5.409-24.666,5.409
		c-16.541,0-29.307-5.071-38.297-15.218c-8.993-10.145-13.487-26.325-13.487-48.539v-95.202h48.61v95.49
		c0,8.943,1.609,15.506,4.833,19.689c3.221,4.183,8.005,6.275,14.353,6.275c5.287,0,9.855-0.697,13.703-2.092
		c3.845-1.393,7.212-3.534,10.097-6.419V132.733h48.755v156.073h-42.552L1182.374,270.343z"/>
	<path fill="#EA0314" d="M1287.237,96.528h-48.899V63.784h48.899V96.528z M1287.237,288.807h-48.899V132.733h48.899V288.807z"/>
	<path fill="#EA0314" d="M1349.548,288.807h-48.899V63.784h48.899V288.807z"/>
	<path fill="#EA0314" d="M1354.305,211.059c0-24.81,5.216-44.547,15.65-59.213c10.434-14.663,25.507-21.997,45.221-21.997
		c7.308,0,13.799,1.611,19.474,4.832c5.673,3.223,10.769,7.814,15.29,13.775l0.433-0.144V63.784h48.755v225.022h-42.264
		l-3.606-19.329c-4.81,7.309-10.338,12.837-16.588,16.588c-6.252,3.75-13.512,5.625-21.781,5.625
		c-19.617,0-34.619-6.971-45.005-20.916c-10.385-13.942-15.578-32.838-15.578-56.688V211.059z M1403.06,214.088
		c0,12.982,1.803,22.912,5.409,29.787c3.606,6.876,9.881,10.313,18.824,10.313c5.096,0,9.567-0.913,13.415-2.741
		c3.845-1.826,7.067-4.566,9.664-8.222V180.19c-2.597-4.23-5.77-7.429-9.521-9.592c-3.75-2.164-8.175-3.246-13.271-3.246
		c-8.751,0-15.026,3.944-18.824,11.828c-3.8,7.886-5.697,18.513-5.697,31.878V214.088z"/>
	<path fill="#EA0314" d="M1579.468,291.691c-23.367,0-41.809-7.068-55.317-21.204c-13.512-14.136-20.267-32.311-20.267-54.524
		v-5.481c0-24.233,6.13-43.753,18.391-58.563c12.261-14.808,30.17-22.164,53.731-22.069c21.54,0,38.226,6.227,50.054,18.68
		c11.827,12.455,17.741,29.787,17.741,52v25.531h-90.441c1.634,8.56,5.168,15.387,10.603,20.483
		c5.432,5.098,12.812,7.645,22.142,7.645c9.423,0,16.852-0.697,22.285-2.092c5.432-1.393,12.381-3.87,20.844-7.429l8.222,32.6
		c-6.443,4.232-14.713,7.694-24.81,10.386C1602.547,290.344,1591.487,291.691,1579.468,291.691z M1576.006,167.352
		c-7.212,0-12.549,2.477-16.011,7.429c-3.462,4.954-5.723,11.9-6.78,20.844h42.985v-3.75c0-8.078-1.611-14.184-4.832-18.319
		C1588.146,169.421,1583.024,167.352,1576.006,167.352z"/>
	<path fill="#EA0314" d="M1749.608,175.718l-17.742-0.144c-5.77,0-10.386,0.915-13.848,2.741c-3.462,1.828-6.059,4.521-7.789,8.078
		v102.414h-48.755V132.733h45.87l1.73,21.925l0.289,0.144c3.173-7.98,7.403-14.136,12.693-18.463
		c5.287-4.327,11.587-6.491,18.896-6.491c2.403,0,4.783,0.169,7.141,0.505c2.355,0.338,4.446,0.746,6.274,1.226L1749.608,175.718z"
		/>
	<path fill="#808184" d="M105.794,346.295v45.036c0,7.994-2.557,14.108-7.671,18.34c-5.115,4.233-11.983,6.349-20.606,6.349
		c-8.686,0-15.602-2.116-20.748-6.349c-5.146-4.232-7.718-10.346-7.718-18.34v-45.036h16.003v45.036c0,4.312,1.069,7.459,3.21,9.441
		c2.14,1.983,5.224,2.974,9.252,2.974c3.997,0,7.042-0.983,9.135-2.95c2.093-1.967,3.14-5.122,3.14-9.465v-45.036H105.794z"/>
	<path fill="#808184" d="M130.106,363.95l0.614,6.939l0.142,0.047c1.636-2.518,3.659-4.468,6.066-5.854
		c2.407-1.385,5.137-2.077,8.19-2.077c5.098,0,9.032,1.589,11.802,4.768c2.769,3.179,4.154,8.372,4.154,15.579v31.676h-15.956
		v-31.724c0-2.989-0.59-5.075-1.771-6.255s-2.982-1.77-5.405-1.77c-1.511,0-2.833,0.259-3.965,0.779
		c-1.133,0.519-2.109,1.267-2.927,2.242v36.728h-15.909V363.95H130.106z"/>
	<path fill="#808184" d="M186.472,415.029h-16.003v-73.644h16.003V415.029z"/>
	<path fill="#808184" d="M219.565,415.973c-7.648,0-13.683-2.313-18.104-6.939c-4.422-4.626-6.633-10.575-6.633-17.845v-1.794
		c0-7.931,2.006-14.319,6.019-19.166c4.013-4.846,9.874-7.254,17.584-7.223c7.05,0,12.51,2.038,16.381,6.113
		c3.871,4.076,5.806,9.748,5.806,17.018v8.356h-29.599c0.535,2.801,1.691,5.036,3.47,6.703c1.777,1.669,4.193,2.502,7.246,2.502
		c3.084,0,5.515-0.228,7.293-0.685c1.778-0.456,4.052-1.267,6.822-2.431l2.691,10.669c-2.109,1.385-4.815,2.518-8.12,3.399
		C227.118,415.532,223.499,415.973,219.565,415.973z M218.432,375.28c-2.36,0-4.107,0.811-5.24,2.431
		c-1.133,1.621-1.873,3.895-2.219,6.821h14.068v-1.228c0-2.644-0.527-4.642-1.582-5.995
		C222.405,375.957,220.729,375.28,218.432,375.28z"/>
	<path fill="#808184" d="M276.733,415.029c-0.472-0.818-0.881-1.715-1.228-2.691c-0.347-0.975-0.646-2.045-0.897-3.21
		c-1.542,2.141-3.36,3.816-5.452,5.027c-2.094,1.211-4.697,1.818-7.813,1.818c-4.941,0-8.907-1.376-11.896-4.131
		c-2.99-2.753-4.484-6.491-4.484-11.212c0-5.161,1.856-9.095,5.57-11.802c3.713-2.706,9.52-4.06,17.419-4.06h5.807v-3.635
		c0-2.234-0.504-3.918-1.511-5.051c-1.007-1.133-2.596-1.699-4.768-1.699c-1.888,0-3.265,0.417-4.13,1.251
		c-0.866,0.834-1.298,2.18-1.298,4.036h-15.909c0-4.91,2.021-8.914,6.066-12.014c4.044-3.1,9.496-4.65,16.357-4.65
		c6.42,0,11.558,1.542,15.413,4.626c3.855,3.085,5.783,7.617,5.783,13.596v19.261c0,2.77,0.22,5.304,0.661,7.601
		c0.44,2.298,1.133,4.611,2.077,6.939H276.733z M266.206,404.643c1.605,0,3.061-0.314,4.367-0.944
		c1.306-0.629,2.368-1.447,3.187-2.455v-7.978h-5.665c-2.581,0-4.43,0.606-5.547,1.817c-1.117,1.212-1.676,2.778-1.676,4.697
		c0,1.479,0.488,2.66,1.463,3.541C263.31,404.203,264.601,404.643,266.206,404.643z"/>
	<path fill="#808184" d="M325.262,400.678c0-1.29-0.701-2.423-2.101-3.399c-1.401-0.975-4.021-1.856-7.86-2.644
		c-6.042-1.196-10.551-2.99-13.525-5.382c-2.974-2.391-4.461-5.759-4.461-10.103c0-4.594,1.857-8.434,5.571-11.519
		c3.713-3.084,8.858-4.626,15.437-4.626c6.955,0,12.423,1.51,16.405,4.532c3.981,3.021,5.972,7.05,5.972,12.085h-15.956
		c0-2.045-0.504-3.58-1.511-4.603c-1.007-1.022-2.66-1.534-4.957-1.534c-1.7,0-3.108,0.448-4.225,1.345
		c-1.118,0.897-1.676,2.07-1.676,3.517c0,1.354,0.637,2.502,1.912,3.446c1.275,0.944,3.926,1.793,7.955,2.549
		c6.357,1.228,11.007,3.038,13.95,5.429c2.942,2.392,4.414,5.87,4.414,10.433c0,4.69-1.999,8.49-5.996,11.401
		c-3.997,2.911-9.426,4.367-16.287,4.367c-7.081,0-12.621-1.739-16.617-5.217c-3.998-3.477-5.996-7.513-5.996-12.108h14.871
		c0.062,2.455,0.779,4.201,2.148,5.24c1.369,1.039,3.375,1.558,6.019,1.558c2.203,0,3.839-0.401,4.91-1.204
		C324.727,403.439,325.262,402.252,325.262,400.678z"/>
	<path fill="#808184" d="M363.595,370.04l0.142,0.047c1.511-2.266,3.344-4.013,5.5-5.24c2.155-1.228,4.603-1.841,7.341-1.841
		c5.382,0,9.56,1.802,12.534,5.405c2.974,3.604,4.461,9.355,4.461,17.254v29.363h-15.956v-29.458c0-3.997-0.583-6.711-1.747-8.143
		c-1.165-1.432-2.974-2.148-5.429-2.148c-1.574,0-2.911,0.22-4.012,0.661c-1.102,0.441-2.046,1.086-2.833,1.936v37.152h-15.956
		v-73.644h15.956V370.04z"/>
	<path fill="#808184" d="M445.642,351.251v12.699h8.356v11.047h-8.356v23.368c0,1.857,0.378,3.179,1.133,3.965
		c0.755,0.787,1.793,1.18,3.115,1.18c0.818,0,1.456-0.031,1.912-0.095c0.456-0.062,1.046-0.188,1.771-0.377l1.133,11.566
		c-1.448,0.44-2.864,0.779-4.249,1.015c-1.385,0.236-2.912,0.354-4.579,0.354c-5.414,0-9.458-1.369-12.132-4.107
		c-2.676-2.738-4.013-7.207-4.013-13.407v-23.462h-6.751V363.95h6.751v-12.699H445.642z"/>
	<path fill="#808184" d="M475.288,370.04l0.142,0.047c1.511-2.266,3.344-4.013,5.5-5.24c2.155-1.228,4.603-1.841,7.341-1.841
		c5.382,0,9.56,1.802,12.534,5.405c2.974,3.604,4.461,9.355,4.461,17.254v29.363h-15.956v-29.458c0-3.997-0.583-6.711-1.747-8.143
		c-1.165-1.432-2.974-2.148-5.429-2.148c-1.574,0-2.911,0.22-4.012,0.661c-1.102,0.441-2.046,1.086-2.833,1.936v37.152h-15.956
		v-73.644h15.956V370.04z"/>
	<path fill="#808184" d="M537.46,415.973c-7.648,0-13.683-2.313-18.104-6.939c-4.422-4.626-6.633-10.575-6.633-17.845v-1.794
		c0-7.931,2.006-14.319,6.019-19.166c4.013-4.846,9.874-7.254,17.584-7.223c7.05,0,12.51,2.038,16.381,6.113
		c3.871,4.076,5.806,9.748,5.806,17.018v8.356h-29.599c0.535,2.801,1.691,5.036,3.47,6.703c1.777,1.669,4.193,2.502,7.246,2.502
		c3.084,0,5.515-0.228,7.293-0.685c1.778-0.456,4.052-1.267,6.822-2.431l2.691,10.669c-2.109,1.385-4.815,2.518-8.12,3.399
		C545.014,415.532,541.394,415.973,537.46,415.973z M536.327,375.28c-2.36,0-4.107,0.811-5.24,2.431
		c-1.133,1.621-1.873,3.895-2.219,6.821h14.068v-1.228c0-2.644-0.527-4.642-1.582-5.995
		C540.3,375.957,538.625,375.28,536.327,375.28z"/>
	<path fill="#808184" d="M636.643,390.575c0,7.806-1.7,13.99-5.099,18.553c-3.399,4.563-8.309,6.845-14.729,6.845
		c-2.519,0-4.706-0.457-6.562-1.369c-1.857-0.913-3.462-2.234-4.815-3.965l-0.142,0.047v23.981h-15.957V363.95h14.918l0.566,5.618
		c1.447-2.14,3.139-3.769,5.075-4.886c1.936-1.117,4.209-1.676,6.821-1.676c6.451,0,11.385,2.4,14.8,7.199
		c3.415,4.8,5.122,11.259,5.122,19.379V390.575z M620.734,389.584c0-4.406-0.614-7.891-1.841-10.457
		c-1.228-2.564-3.257-3.847-6.09-3.847c-1.826,0-3.344,0.323-4.556,0.968c-1.212,0.645-2.195,1.613-2.95,2.903v21.291
		c0.755,1.102,1.747,1.92,2.974,2.455c1.228,0.536,2.769,0.803,4.626,0.803c2.863,0,4.886-1.125,6.066-3.375
		c1.18-2.25,1.77-5.5,1.77-9.749V389.584z"/>
	<path fill="#808184" d="M641.553,389.018c0-7.836,2.131-14.131,6.396-18.883c4.264-4.751,10.362-7.128,18.293-7.128
		c7.962,0,14.075,2.376,18.34,7.128c4.264,4.752,6.397,11.047,6.397,18.883v0.991c0,7.868-2.133,14.162-6.397,18.883
		c-4.265,4.721-10.346,7.082-18.246,7.082c-7.994,0-14.123-2.36-18.387-7.082c-4.265-4.721-6.396-11.015-6.396-18.883V389.018z
		 M657.509,390.009c0,4.343,0.653,7.711,1.959,10.103c1.306,2.392,3.595,3.588,6.869,3.588c3.179,0,5.429-1.196,6.751-3.588
		c1.322-2.392,1.982-5.759,1.982-10.103v-0.991c0-4.217-0.661-7.561-1.982-10.032c-1.322-2.47-3.604-3.706-6.845-3.706
		c-3.21,0-5.469,1.235-6.774,3.706c-1.306,2.471-1.959,5.814-1.959,10.032V390.009z"/>
	<path fill="#808184" d="M741.963,394.777h0.142l5.571-30.827h14.729l-11.991,51.079h-13.501l-8.403-28.561h-0.142l-8.403,28.561
		H706.51l-12.038-51.079h14.729l5.476,31.44h0.142l8.592-31.44h10.055L741.963,394.777z"/>
	<path fill="#808184" d="M791.437,415.973c-7.648,0-13.683-2.313-18.104-6.939c-4.422-4.626-6.633-10.575-6.633-17.845v-1.794
		c0-7.931,2.006-14.319,6.019-19.166c4.013-4.846,9.874-7.254,17.584-7.223c7.05,0,12.51,2.038,16.381,6.113
		c3.871,4.076,5.806,9.748,5.806,17.018v8.356h-29.599c0.535,2.801,1.691,5.036,3.47,6.703c1.777,1.669,4.193,2.502,7.246,2.502
		c3.084,0,5.515-0.228,7.293-0.685c1.778-0.456,4.052-1.267,6.822-2.431l2.691,10.669c-2.109,1.385-4.815,2.518-8.12,3.399
		C798.99,415.532,795.37,415.973,791.437,415.973z M790.303,375.28c-2.36,0-4.107,0.811-5.24,2.431
		c-1.133,1.621-1.873,3.895-2.219,6.821h14.068v-1.228c0-2.644-0.527-4.642-1.582-5.995
		C794.276,375.957,792.601,375.28,790.303,375.28z"/>
	<path fill="#808184" d="M848.085,378.018l-5.806-0.047c-1.889,0-3.399,0.3-4.532,0.897c-1.133,0.599-1.982,1.48-2.549,2.644v33.517
		h-15.957V363.95h15.012l0.566,7.176l0.094,0.047c1.039-2.612,2.423-4.626,4.154-6.042c1.73-1.416,3.792-2.124,6.185-2.124
		c0.786,0,1.565,0.055,2.336,0.165c0.771,0.111,1.456,0.244,2.054,0.401L848.085,378.018z"/>
	<path fill="#808184" d="M876.929,389.018c0-7.836,2.131-14.131,6.396-18.883c4.264-4.751,10.362-7.128,18.293-7.128
		c7.962,0,14.075,2.376,18.34,7.128c4.265,4.752,6.397,11.047,6.397,18.883v0.991c0,7.868-2.133,14.162-6.397,18.883
		c-4.265,4.721-10.346,7.082-18.246,7.082c-7.994,0-14.123-2.36-18.387-7.082c-4.265-4.721-6.396-11.015-6.396-18.883V389.018z
		 M892.885,390.009c0,4.343,0.653,7.711,1.959,10.103c1.306,2.392,3.595,3.588,6.869,3.588c3.179,0,5.429-1.196,6.751-3.588
		c1.322-2.392,1.982-5.759,1.982-10.103v-0.991c0-4.217-0.661-7.561-1.982-10.032c-1.322-2.47-3.604-3.706-6.845-3.706
		c-3.21,0-5.469,1.235-6.774,3.706c-1.306,2.471-1.959,5.814-1.959,10.032V390.009z"/>
	<path fill="#808184" d="M936.787,415.029v-40.032h-7.364V363.95h7.364v-5.287c0-5.979,1.73-10.519,5.193-13.62
		c3.461-3.099,8.48-4.65,15.059-4.65c1.228,0,2.455,0.087,3.683,0.26c1.228,0.173,2.627,0.417,4.201,0.732l-1.18,11.754
		c-0.882-0.157-1.652-0.275-2.313-0.354c-0.661-0.078-1.479-0.118-2.455-0.118c-2.015,0-3.549,0.512-4.603,1.535
		c-1.055,1.023-1.581,2.51-1.581,4.461v5.287h9.913v11.047h-9.913v40.032H936.787z"/>
	<path fill="#808184" d="M1369.166,370.04l0.142,0.047c1.511-2.266,3.344-4.013,5.5-5.24c2.155-1.228,4.603-1.841,7.341-1.841
		c5.382,0,9.56,1.802,12.533,5.405c2.975,3.604,4.462,9.355,4.462,17.254v29.363h-15.957v-29.458c0-3.997-0.582-6.711-1.746-8.143
		c-1.165-1.432-2.975-2.148-5.429-2.148c-1.574,0-2.912,0.22-4.013,0.661c-1.103,0.441-2.046,1.086-2.833,1.936v37.152h-15.956
		v-73.644h15.956V370.04z"/>
	<path fill="#808184" d="M1437.381,415.029c-0.472-0.818-0.881-1.715-1.227-2.691c-0.347-0.975-0.646-2.045-0.897-3.21
		c-1.542,2.141-3.359,3.816-5.452,5.027c-2.094,1.211-4.697,1.818-7.813,1.818c-4.94,0-8.906-1.376-11.896-4.131
		c-2.99-2.753-4.485-6.491-4.485-11.212c0-5.161,1.856-9.095,5.57-11.802c3.714-2.706,9.521-4.06,17.42-4.06h5.807v-3.635
		c0-2.234-0.504-3.918-1.511-5.051c-1.008-1.133-2.597-1.699-4.768-1.699c-1.889,0-3.266,0.417-4.131,1.251
		c-0.866,0.834-1.298,2.18-1.298,4.036h-15.909c0-4.91,2.021-8.914,6.066-12.014c4.043-3.1,9.496-4.65,16.357-4.65
		c6.42,0,11.558,1.542,15.413,4.626c3.854,3.085,5.782,7.617,5.782,13.596v19.261c0,2.77,0.221,5.304,0.661,7.601
		c0.44,2.298,1.133,4.611,2.077,6.939H1437.381z M1426.854,404.643c1.604,0,3.06-0.314,4.366-0.944
		c1.306-0.629,2.368-1.447,3.187-2.455v-7.978h-5.665c-2.581,0-4.43,0.606-5.547,1.817c-1.117,1.212-1.676,2.778-1.676,4.697
		c0,1.479,0.487,2.66,1.464,3.541C1423.958,404.203,1425.249,404.643,1426.854,404.643z"/>
	<path fill="#808184" d="M1473.968,363.95l0.613,6.939l0.142,0.047c1.636-2.518,3.658-4.468,6.066-5.854
		c2.407-1.385,5.138-2.077,8.19-2.077c5.099,0,9.032,1.589,11.802,4.768c2.769,3.179,4.154,8.372,4.154,15.579v31.676h-15.956
		v-31.724c0-2.989-0.59-5.075-1.771-6.255c-1.18-1.18-2.982-1.77-5.405-1.77c-1.511,0-2.832,0.259-3.966,0.779
		c-1.133,0.519-2.108,1.267-2.927,2.242v36.728h-15.908V363.95H1473.968z"/>
	<path fill="#808184" d="M1511.497,389.584c0-8.12,1.707-14.579,5.122-19.379c3.415-4.799,8.348-7.199,14.8-7.199
		c2.392,0,4.516,0.527,6.373,1.581c1.856,1.055,3.524,2.558,5.004,4.508l0.142-0.047v-27.664h15.956v73.644h-13.832l-1.18-6.326
		c-1.574,2.392-3.384,4.201-5.429,5.429c-2.046,1.228-4.422,1.841-7.129,1.841c-6.42,0-11.329-2.282-14.729-6.845
		c-3.398-4.563-5.099-10.747-5.099-18.553V389.584z M1527.453,390.575c0,4.249,0.591,7.499,1.771,9.749
		c1.181,2.25,3.234,3.375,6.161,3.375c1.667,0,3.131-0.299,4.39-0.897c1.259-0.598,2.313-1.495,3.163-2.691v-20.63
		c-0.85-1.384-1.888-2.431-3.115-3.139s-2.676-1.062-4.344-1.062c-2.864,0-4.917,1.291-6.16,3.871
		c-1.244,2.581-1.865,6.059-1.865,10.433V390.575z"/>
	<path fill="#808184" d="M1583.441,370.04l0.142,0.047c1.511-2.266,3.344-4.013,5.5-5.24c2.155-1.228,4.603-1.841,7.341-1.841
		c5.382,0,9.56,1.802,12.533,5.405c2.975,3.604,4.462,9.355,4.462,17.254v29.363h-15.957v-29.458c0-3.997-0.582-6.711-1.746-8.143
		c-1.165-1.432-2.975-2.148-5.429-2.148c-1.574,0-2.912,0.22-4.013,0.661c-1.103,0.441-2.046,1.086-2.833,1.936v37.152h-15.956
		v-73.644h15.956V370.04z"/>
	<path fill="#808184" d="M1645.614,415.973c-7.647,0-13.683-2.313-18.104-6.939c-4.422-4.626-6.633-10.575-6.633-17.845v-1.794
		c0-7.931,2.007-14.319,6.02-19.166c4.013-4.846,9.874-7.254,17.585-7.223c7.049,0,12.51,2.038,16.381,6.113
		c3.871,4.076,5.807,9.748,5.807,17.018v8.356h-29.6c0.535,2.801,1.691,5.036,3.47,6.703c1.778,1.669,4.193,2.502,7.247,2.502
		c3.084,0,5.515-0.228,7.293-0.685c1.777-0.456,4.052-1.267,6.821-2.431l2.691,10.669c-2.109,1.385-4.815,2.518-8.12,3.399
		C1653.167,415.532,1649.548,415.973,1645.614,415.973z M1644.481,375.28c-2.36,0-4.107,0.811-5.24,2.431
		c-1.133,1.621-1.873,3.895-2.219,6.821h14.067v-1.228c0-2.644-0.527-4.642-1.581-5.995
		C1648.454,375.957,1646.778,375.28,1644.481,375.28z"/>
	<path fill="#808184" d="M1690.131,415.029h-16.003v-73.644h16.003V415.029z"/>
	<path fill="#808184" d="M1697.778,389.584c0-8.12,1.707-14.579,5.122-19.379c3.415-4.799,8.348-7.199,14.8-7.199
		c2.392,0,4.516,0.527,6.373,1.581c1.856,1.055,3.524,2.558,5.004,4.508l0.142-0.047v-27.664h15.956v73.644h-13.832l-1.18-6.326
		c-1.574,2.392-3.384,4.201-5.429,5.429c-2.046,1.228-4.422,1.841-7.129,1.841c-6.42,0-11.329-2.282-14.729-6.845
		c-3.398-4.563-5.099-10.747-5.099-18.553V389.584z M1713.734,390.575c0,4.249,0.591,7.499,1.771,9.749
		c1.181,2.25,3.234,3.375,6.161,3.375c1.667,0,3.131-0.299,4.39-0.897c1.259-0.598,2.313-1.495,3.163-2.691v-20.63
		c-0.85-1.384-1.888-2.431-3.115-3.139s-2.676-1.062-4.344-1.062c-2.864,0-4.917,1.291-6.16,3.871
		c-1.244,2.581-1.865,6.059-1.865,10.433V390.575z"/>
</g>
<g>
	<path fill="#808184" d="M1027.795,372.432c-1.025-0.378-2.335-0.806-3.888-1.271l-3.708-1.183c-2.84-0.877-5.058-1.738-6.604-2.562
		c-4.169-2.111-6.146-4.967-6.048-8.736c0.101-4.007,1.983-6.983,5.757-9.096c1.513-0.855,3.281-1.495,5.277-1.907
		c1.731-0.408,3.488-0.614,5.219-0.614c2.596,0,4.918,0.681,6.905,2.022c1.545,1.047,2.89,2.519,3.98,4.353
		c0.76,1.416,2.395,6.843,2.395,6.843l0.034,0.034l2.515,0.208v-15.889c0-0.393-0.285-0.598-1.035-1.093l-1.076-0.578l-1.517-0.639
		c-1.402-0.538-3.01-0.948-4.768-1.214c-4.423-0.754-10.062-0.833-15.526,0.32c-3.197,0.693-6.091,1.749-8.598,3.136
		c-2.961,1.613-5.312,3.639-6.984,6.014c-1.952,2.714-3.026,5.929-3.188,9.581c0,7.007,3.008,11.994,8.94,14.823
		c1.319,0.633,2.849,1.277,4.535,1.909c1.236,0.482,2.861,1.069,4.841,1.745l4.789,1.57c1.709,0.622,3.205,1.227,4.451,1.797
		c3.063,1.378,5.384,2.896,6.899,4.512c1.794,1.896,2.669,4.104,2.669,6.749c0,2.647-0.652,4.944-1.951,6.839
		c-1.094,1.69-2.688,3.106-4.749,4.211c-1.72,0.96-3.729,1.681-5.977,2.144c-1.891,0.409-3.782,0.616-5.625,0.616
		c-4.008,0-7.659-1.079-10.845-3.203c-1.755-1.204-3.152-2.676-4.15-4.373c-1.096-1.891-1.65-4.068-1.65-6.47v-0.615h-3.046v15.514
		c0,0.431,0.188,0.547,1.918,1.497l1.919,0.957c0.85,0.373,1.739,0.724,2.617,1.031c2.226,0.904,4.57,1.606,6.959,2.082
		c2.97,0.637,6.011,0.961,9.036,0.961h0.009h0.008c6.453-0.161,12.321-2.082,17.448-5.713c2.686-1.933,4.812-4.224,6.32-6.81
		c1.673-2.861,2.576-6.008,2.685-9.375c0-4.977-1.836-9.366-5.458-13.044C1036.533,376.464,1032.58,374.08,1027.795,372.432z"/>
	<path fill="#808184" d="M1095.146,402.992l-0.958,0.639c-2.931,1.957-5.557,3.31-7.816,4.029c-2.709,0.919-5.958,1.386-9.655,1.386
		c-5.309,0-9.579-1.812-12.701-5.387c-3.351-3.806-5.049-9.239-5.049-16.146c0-6.081,1.493-11.017,4.437-14.67
		c3.226-4.03,7.916-6.075,13.944-6.075c1.896,0,3.663,0.377,5.259,1.125c1.39,0.645,2.624,1.552,3.673,2.702
		c0.902,0.952,1.638,1.967,2.188,3.017c0.593,1.127,0.718,1.754,0.718,2.077v0.25l2.85,0.42l0.849-11.206l-0.269-0.202
		c-3.301-2.488-7.881-3.751-13.612-3.751c-3.928,0-7.644,0.485-11.045,1.442c-3.79,1.069-7.097,2.695-9.819,4.831
		c-3.062,2.309-5.459,5.25-7.126,8.746c-1.763,3.849-2.658,8.337-2.658,13.342c0,1.793,0.383,3.897,1.131,6.247
		c0.909,3.046,2.265,5.839,4.025,8.292c2.199,3.167,4.924,5.644,8.092,7.362c3.803,2.09,8.254,3.15,13.223,3.15
		c2.508,0,5.104-0.325,7.698-0.96c2.189-0.48,4.35-1.184,6.405-2.081c1.713-0.695,3.184-1.459,4.349-2.253
		c1.489-0.922,1.976-1.461,1.869-1.943V402.992z"/>
	<g>
		<path fill="#808184" d="M1117.618,409.044c-1.328-1.185-2-3.337-2-6.397v-40.263h-16.996v2.964h0.615
			c2.18,0,3.747,0.668,4.787,2.04c0.861,1.146,1.297,2.746,1.297,4.754l0.008,32.3l-0.158,1.019
			c-0.143,0.864-0.407,1.61-0.795,2.241c-0.993,1.754-2.675,2.604-5.139,2.604h-0.615v2.809h23.696v-2.809h-0.618
			C1119.922,410.306,1118.55,409.881,1117.618,409.044z"/>
		<path fill="#808184" d="M1109.798,353.289c3.705,0,5.662-1.958,5.662-5.661c0-3.702-1.957-5.659-5.662-5.659
			c-3.701,0-5.659,1.957-5.659,5.659C1104.139,351.331,1106.097,353.289,1109.798,353.289z"/>
	</g>
	<path fill="#808184" d="M1190.957,409.425c-0.575,0.289-1.239,0.51-1.989,0.661c-0.638,0.146-1.204,0.22-1.675,0.22h-0.618v2.729
		h23.697v-2.729h-0.616c-1.253,0-2.211-0.185-2.836-0.542c-0.941-0.567-1.874-1.755-2.761-3.531
		c-0.254-0.505-0.814-1.806-1.721-3.986l-3.306-7.796c-1.212-2.943-2.629-6.386-4.258-10.328l-17.497-42.154h-17.816v2.728h0.616
		c1.497,0,2.839,0.39,3.985,1.151c1.149,0.798,1.601,1.709,1.412,2.86l-8.322,18.687c-1.632,3.626-3.183,7.068-4.65,10.32
		l-4.805,10.401c-1.683,3.571-3.152,6.671-4.408,9.289l-3.54,7.08c-1.21,2.292-1.78,3.128-2.046,3.425l-0.08,0.114
		c-0.553,1.015-1.541,1.718-3.025,2.151c-0.465,0.137-2.723,0.78-2.723,0.78l0.108,2.079h19.488v-2.694l-1.901-0.111
		c-1.031-0.094-1.877-0.395-2.528-0.907c-0.519-0.383-1.044-0.996-0.523-2.308l11.341-22.985h24.595l4.649,10.594
		c1.468,3.255,2.624,5.852,3.458,7.781l1.716,4.208C1192.763,407.852,1192.323,408.721,1190.957,409.425z M1170.701,353.048
		l9.001,23.759h-19.297L1170.701,353.048z"/>
	<path fill="#808184" d="M1243.785,361.043c-3.7,0-7.582,0.948-11.541,2.819c-2.936,1.425-5.549,3.167-7.786,5.189v-6.668h-16.915
		v2.886h0.616c4.095,0,6.081,2.274,6.081,6.952v55.726c0,1.126-0.393,2.162-1.21,3.173c-1.099,1.429-2.69,2.124-4.871,2.124h-0.616
		v2.808h23.695v-2.712l-0.599-0.018c-1.69-0.047-3.104-0.532-4.191-1.43c-1.233-1.044-1.832-2.514-1.832-4.496v-17.777
		c1.595,0.858,3.727,1.754,6.354,2.673c1.8,0.634,3.547,1.146,5.194,1.518c1.927,0.428,3.644,0.646,5.098,0.646
		c7.467,0,13.803-2.062,18.836-6.131c2.686-2.202,4.811-4.926,6.316-8.102c1.555-3.377,2.342-7.256,2.342-11.529
		c0-8.197-1.953-14.797-5.814-19.622C1258.584,363.744,1252.138,361.043,1243.785,361.043z M1242.13,366.846
		c5.401,0,9.309,1.896,11.94,5.794c2.339,3.509,3.523,8.405,3.523,14.557c0,6.081-1.731,11.307-5.146,15.54
		c-3.385,4.239-7.545,6.388-12.344,6.388c-3.71-0.15-7.124-1.786-10.158-4.873c-1.768-1.715-3.15-3.817-4.109-6.239
		c-1.07-2.804-1.614-5.992-1.614-9.477c0-2.196,0.336-4.5,1-6.84c0.766-2.608,1.853-4.992,3.233-7.087
		c1.57-2.382,3.444-4.256,5.559-5.566C1236.429,367.585,1239.157,366.846,1242.13,366.846z"/>
	<path fill="#808184" d="M1306.222,387.002c-1.352-0.917-3.044-1.737-5.022-2.433c-1.435-0.53-3.365-1.095-5.74-1.676l-0.147-0.017
		c-0.13,0-0.295-0.04-0.478-0.113l-0.23-0.046c-0.024,0-0.159-0.004-0.624-0.151c-0.401-0.057-0.517-0.098-0.518-0.098l-3.654-0.909
		c-1.944-0.562-3.555-1.159-4.779-1.77c-3.008-1.529-4.472-3.643-4.472-6.467c0-2.202,0.907-3.806,2.782-4.914
		c1.68-1.038,3.904-1.563,6.636-1.563c4.07-0.15,7.425,0.758,9.918,2.703c2.286,1.837,3.394,4.053,3.394,6.771l-0.086,1.024
		l3.133-0.409v-0.615c0-1.767,0.105-3.977,0.314-6.621c0-0.451,0.024-0.9,0.073-1.333c0.056-0.403,0.084-0.803,0.081-1.138
		l0.109-1.322l-2.014-1.243c-1.015-0.537-2.156-1.026-3.39-1.455c-1.655-0.589-3.496-1.047-5.461-1.367
		c-2.442-0.424-5.103-0.64-7.907-0.64c-1.367,0-2.886,0.248-4.498,0.733c-1.946,0.541-3.701,1.309-5.219,2.282
		c-1.854,1.202-3.321,2.644-4.367,4.295c-1.209,1.98-1.823,4.237-1.823,6.706c0,4.601,1.622,8.134,4.818,10.502
		c1.31,0.984,2.96,1.81,4.878,2.448c1.382,0.532,3.213,1.07,5.441,1.601l5.415,1.255c1.896,0.513,3.454,1.058,4.609,1.607
		c2.851,1.477,4.236,3.669,4.236,6.706c0,3.07-1.253,5.431-3.823,7.212c-2.408,1.604-5.526,2.418-9.273,2.418
		c-2.811,0-5.669-0.923-8.505-2.746c-3.305-2.054-4.911-4.485-4.911-7.437v-0.617h-2.97l0.085,10.551l1.34,0.955
		c0.982,0.766,2.086,1.427,3.257,1.958c1.715,0.856,3.567,1.511,5.486,1.938c2.399,0.585,4.963,0.908,7.624,0.964h0.012
		c0.601,0,1.316-0.056,2.118-0.162c0.962-0.107,1.938-0.271,2.891-0.481c2.62-0.534,5.008-1.349,7.094-2.419
		c2.757-1.404,4.927-3.221,6.45-5.396c1.853-2.616,2.792-5.733,2.792-9.261C1311.297,392.569,1309.589,389.267,1306.222,387.002z"/>
	<path fill="#808184" d="M1129.774,388.634c1.067,2.706,4.425,8.305,6.829,2.969l1.421-3.037l11.947-25.533l1.285-2.748
		c2.516-5.316-4.121-4.031-6.828-2.962l-18.478,7.292c-2.701,1.069-4.029,4.125-2.963,6.824L1129.774,388.634z"/>
</g>
</svg>
