<?xml version="1.0" encoding="utf-8"?>
<!-- Generator: Adobe Illustrator 15.0.0, SVG Export Plug-In . SVG Version: 6.00 Build 0)  -->
<!DOCTYPE svg PUBLIC "-//W3C//DTD SVG 1.1//EN" "http://www.w3.org/Graphics/SVG/1.1/DTD/svg11.dtd">
<svg version="1.1" id="Layer_1" xmlns="http://www.w3.org/2000/svg" xmlns:xlink="http://www.w3.org/1999/xlink" x="0px" y="0px"
	 width="1113.111px" height="360.036px" viewBox="341.258 281.294 1113.111 360.036"
	 enable-background="new 341.258 281.294 1113.111 360.036" xml:space="preserve">
<g>
	<path d="M464.212,407.082c-3.518-1.293-8.017-2.764-13.338-4.359l-12.731-4.062c-9.74-3.008-17.352-5.96-22.659-8.792
		c-14.306-7.239-21.092-17.042-20.75-29.979c0.342-13.75,6.801-23.959,19.756-31.212c5.182-2.937,11.254-5.134,18.104-6.544
		c5.948-1.398,11.974-2.105,17.909-2.105c8.906,0,16.878,2.335,23.699,6.938c5.301,3.593,9.913,8.646,13.657,14.938
		c2.608,4.864,8.219,23.482,8.219,23.482l0.115,0.116l8.626,0.714v-54.522c0-1.348-0.975-2.05-3.545-3.753l-3.698-1.982l-5.202-2.19
		c-4.812-1.844-10.33-3.25-16.362-4.166c-15.173-2.585-34.525-2.859-53.275,1.1c-10.972,2.379-20.9,6.001-29.502,10.76
		c-10.158,5.539-18.227,12.486-23.966,20.636c-6.704,9.314-10.385,20.346-10.945,32.877c0,24.043,10.325,41.157,30.679,50.862
		c4.53,2.177,9.775,4.385,15.563,6.556c4.238,1.657,9.819,3.671,16.609,5.989l16.434,5.387c5.866,2.135,11,4.206,15.275,6.165
		c10.514,4.73,18.475,9.938,23.673,15.483c6.164,6.507,9.161,14.082,9.161,23.16c0,9.077-2.241,16.959-6.695,23.466
		c-3.755,5.8-9.228,10.658-16.295,14.449c-5.905,3.297-12.798,5.771-20.514,7.354c-6.48,1.403-12.977,2.113-19.298,2.113
		c-13.752,0-26.281-3.702-37.214-10.991c-6.023-4.127-10.816-9.179-14.242-15.006c-3.757-6.485-5.664-13.958-5.664-22.199v-2.112
		h-10.448v53.231c0,1.48,0.646,1.881,6.576,5.137l6.589,3.288c2.914,1.276,5.966,2.482,8.978,3.54
		c7.639,3.1,15.686,5.503,23.884,7.143c10.188,2.184,20.619,3.293,31.006,3.293h0.028h0.023
		c22.146-0.549,42.285-7.139,59.875-19.604c9.217-6.63,16.514-14.493,21.688-23.365c5.742-9.818,8.84-20.616,9.214-32.171
		c0-17.08-6.3-32.14-18.729-44.76C494.198,420.92,480.634,412.739,464.212,407.082z"/>
	<path d="M695.327,511.952l-3.284,2.191c-10.057,6.709-19.066,11.354-26.826,13.823c-9.295,3.153-20.441,4.754-33.132,4.754
		c-18.213,0-32.873-6.222-43.582-18.485c-11.497-13.062-17.324-31.705-17.324-55.403c0-20.866,5.121-37.801,15.227-50.342
		c11.062-13.831,27.16-20.844,47.846-20.844c6.507,0,12.573,1.298,18.045,3.86c4.771,2.216,9.004,5.328,12.606,9.272
		c3.095,3.267,5.621,6.751,7.509,10.349c2.034,3.874,2.462,6.016,2.462,7.132v0.854l9.779,1.442l2.914-38.452l-0.924-0.695
		c-11.328-8.536-27.044-12.865-46.711-12.865c-13.479,0-26.229,1.665-37.899,4.946c-13.006,3.666-24.354,9.25-33.698,16.576
		c-10.505,7.927-18.729,18.017-24.451,30.017c-6.05,13.204-9.116,28.605-9.116,45.779c0,6.152,1.308,13.376,3.874,21.434
		c3.119,10.459,7.772,20.041,13.814,28.458c7.549,10.865,16.895,19.367,27.765,25.261c13.057,7.174,28.323,10.812,45.376,10.812
		c8.606,0,17.514-1.115,26.417-3.299c7.513-1.646,14.925-4.06,21.979-7.14c5.876-2.383,10.924-5.004,14.922-7.729
		c5.111-3.161,6.779-5.012,6.413-6.666V511.952z"/>
	<g>
		<path d="M772.439,532.715c-4.557-4.063-6.868-11.447-6.868-21.95V372.601h-58.319v10.176h2.113c7.479,0,12.855,2.293,16.43,6.999
			c2.951,3.937,4.448,9.423,4.448,16.312l0.022,110.842l-0.537,3.491c-0.492,2.964-1.397,5.527-2.729,7.69
			c-3.41,6.019-9.179,8.938-17.634,8.938h-2.113v9.639h81.312v-9.639h-2.115C780.346,537.051,775.635,535.593,772.439,532.715z"/>
		<path d="M745.607,341.395c12.707,0,19.424-6.717,19.424-19.423c0-12.707-6.717-19.424-19.424-19.424
			c-12.704,0-19.424,6.717-19.424,19.424C726.186,334.677,732.903,341.395,745.607,341.395z"/>
	</g>
	<path d="M1024.097,534.026c-1.972,0.988-4.249,1.749-6.823,2.266c-2.188,0.503-4.126,0.76-5.749,0.76h-2.115v9.363h81.312v-9.363
		h-2.113c-4.301,0-7.583-0.638-9.729-1.86c-3.235-1.945-6.43-6.021-9.477-12.122c-0.866-1.728-2.796-6.192-5.9-13.675
		l-11.345-26.752c-4.156-10.098-9.021-21.909-14.611-35.44l-60.043-144.653h-61.134v9.367h2.11c5.139,0,9.748,1.337,13.676,3.952
		c3.947,2.735,5.495,5.86,4.85,9.812l-28.562,64.126c-5.595,12.44-10.913,24.255-15.954,35.416l-16.489,35.688
		c-5.771,12.257-10.813,22.89-15.125,31.872l-12.149,24.299c-4.148,7.858-6.104,10.731-7.016,11.755l-0.273,0.39
		c-1.9,3.484-5.291,5.896-10.384,7.378c-1.595,0.475-9.344,2.681-9.344,2.681l0.373,7.133h66.868v-9.243l-6.521-0.385
		c-3.542-0.321-6.441-1.355-8.674-3.112c-1.781-1.312-3.587-3.415-1.795-7.917l38.91-78.875h84.398l15.953,36.352
		c5.038,11.169,9.006,20.081,11.866,26.699l5.894,14.439C1030.299,528.628,1028.787,531.611,1024.097,534.026z M954.592,340.57
		l30.883,81.526h-66.211L954.592,340.57z"/>
	<path d="M1205.379,368.004c-12.701,0-26.018,3.252-39.601,9.678c-10.076,4.884-19.047,10.859-26.718,17.801v-22.882h-58.05v9.904
		h2.115c14.047,0,20.872,7.804,20.872,23.854v191.229c0,3.863-1.35,7.412-4.157,10.883c-3.766,4.902-9.229,7.287-16.715,7.287
		h-2.115v9.639h81.311v-9.307l-2.054-0.062c-5.796-0.164-10.645-1.824-14.384-4.906c-4.229-3.582-6.282-8.627-6.282-15.428v-61.005
		c5.475,2.942,12.791,6.02,21.8,9.171c6.175,2.178,12.172,3.932,17.823,5.209c6.612,1.469,12.502,2.215,17.496,2.215
		c25.624,0,47.365-7.07,64.634-21.033c9.218-7.558,16.507-16.907,21.676-27.803c5.336-11.586,8.039-24.898,8.039-39.562
		c0-28.129-6.709-50.777-19.955-67.331C1256.158,377.273,1234.042,368.004,1205.379,368.004z M1199.699,387.916
		c18.536,0,31.94,6.51,40.974,19.886c8.022,12.036,12.087,28.84,12.087,49.947c0,20.864-5.936,38.799-17.658,53.323
		c-11.61,14.546-25.883,21.92-42.351,21.92c-12.729-0.514-24.448-6.127-34.86-16.717c-6.065-5.886-10.811-13.098-14.102-21.413
		c-3.673-9.618-5.537-20.562-5.537-32.515c0-7.536,1.152-15.442,3.43-23.476c2.627-8.943,6.357-17.125,11.095-24.316
		c5.39-8.174,11.814-14.604,19.073-19.099C1180.135,390.452,1189.499,387.916,1199.699,387.916z"/>
	<path d="M1419.627,457.083c-4.636-3.15-10.443-5.962-17.229-8.348c-4.928-1.821-11.555-3.759-19.7-5.749l-0.507-0.062
		c-0.448,0-1.014-0.133-1.637-0.389l-0.796-0.154c-0.082,0-0.541-0.018-2.143-0.521c-1.376-0.193-1.767-0.332-1.774-0.332
		l-12.539-3.12c-6.674-1.93-12.194-3.976-16.397-6.074c-10.323-5.247-15.346-12.503-15.346-22.19c0-7.555,3.111-13.063,9.546-16.864
		c5.766-3.559,13.397-5.363,22.773-5.363c13.971-0.515,25.48,2.603,34.029,9.271c7.845,6.309,11.649,13.909,11.649,23.237
		l-0.298,3.511l10.749-1.398v-2.111c0-6.062,0.362-13.647,1.079-22.72c0-1.545,0.084-3.089,0.25-4.574
		c0.193-1.384,0.291-2.757,0.282-3.909l0.375-4.533l-6.905-4.271c-3.49-1.837-7.407-3.52-11.635-4.991
		c-5.684-2.016-11.998-3.594-18.735-4.688c-8.388-1.456-17.517-2.194-27.141-2.194c-4.693,0-9.901,0.848-15.438,2.509
		c-6.674,1.858-12.694,4.493-17.898,7.834c-6.368,4.124-11.401,9.074-14.989,14.738c-4.153,6.793-6.262,14.536-6.262,23.012
		c0,15.785,5.568,27.914,16.533,36.038c4.497,3.371,10.157,6.207,16.738,8.397c4.748,1.829,11.026,3.678,18.676,5.498l18.586,4.306
		c6.504,1.76,11.844,3.627,15.812,5.519c9.786,5.064,14.542,12.59,14.542,23.008c0,10.536-4.305,18.637-13.123,24.752
		c-8.264,5.504-18.965,8.297-31.821,8.297c-9.645,0-19.448-3.164-29.181-9.421c-11.342-7.046-16.854-15.392-16.854-25.522v-2.112
		h-10.192l0.294,36.205l4.595,3.279c3.375,2.623,7.156,4.896,11.174,6.713c5.89,2.943,12.24,5.188,18.834,6.654
		c8.23,2.008,17.027,3.119,26.156,3.305h0.039c2.062,0,4.521-0.188,7.27-0.553c3.298-0.371,6.65-0.928,9.926-1.65
		c8.989-1.836,17.179-4.633,24.34-8.305c9.461-4.819,16.904-11.056,22.132-18.514c6.36-8.98,9.581-19.675,9.581-31.783
		C1437.046,476.184,1431.186,464.855,1419.627,457.083z"/>
	<path d="M814.152,462.682c3.662,9.286,15.184,28.501,23.438,10.188l4.876-10.42l40.993-87.615l4.413-9.43
		c8.627-18.244-14.144-13.826-23.429-10.163l-63.41,25.023c-9.272,3.669-13.829,14.162-10.167,23.418L814.152,462.682z"/>
</g>
</svg>
